<?xml version="1.0" encoding="UTF-8"?><svg id="Layer_2" xmlns="http://www.w3.org/2000/svg" viewBox="0 0 337.358 359.864"><defs><style>.cls-1{fill:#fe0200;}.cls-2{fill:#fff;}.cls-3{fill:#cc0909;}.cls-4{fill:#441211;}.cls-5{fill:#4a0000;}</style></defs><g id="logo"><path class="cls-5" d="M337.342,74.081l-.198-9.676-13.466-6.241v-12.448l-8.7-4.247C243.762,6.705,176.004.633,171.911.294l-2.937-.294-3.352.279c-2.869.228-71.098,5.972-143.242,41.19l-8.701,4.247v12.449L.213,64.405.015,74.083c-.057,2.81-1.046,69.613,29.397,137.419,13.252,29.027,34.429,58.425,62.942,87.376,29.721,30.179,57.222,49.402,67.666,56.266l.455.299,8.646,4.422,7.24-4.117.997-.603c10.44-6.861,37.935-26.08,67.657-56.266,28.506-28.951,49.684-58.358,62.971-87.465,30.416-67.747,29.414-134.522,29.356-137.332Z"/><path class="cls-1" d="M327.344,74.286l-.07-3.434-13.596-6.301v-12.589l-3.087-1.507C240.56,16.27,174.549,10.539,171.005,10.253l-2.115-.211-2.479.207c-2.792.221-69.184,5.811-139.645,40.207l-3.087,1.507v12.589l-13.595,6.301-.07,3.434c-.055,2.718-1.019,67.325,28.496,133.063,12.765,27.961,33.278,56.396,60.97,84.513,29.053,29.501,55.857,48.238,66.033,54.926l3.357,1.717,2.548-1.449.448-.267c10.173-6.686,36.971-25.42,66.023-54.926,27.685-28.116,48.194-56.551,60.974-84.544,29.5-65.707,28.537-130.313,28.481-133.032Z"/><path d="M170.512,15.731s67.333,5.333,137.666,39.667v12.667l13.667,6.333s1.333,65.333-28,130.667c-28,61.333-90,114.126-125,137.126l-.146.083-.166-.083c-35-23-97.02-75.793-125.02-137.126C14.179,139.731,15.512,74.398,15.512,74.398l13.666-6.333v-12.667C99.512,21.065,166.845,15.731,166.845,15.731l2-.167,1.667.167Z"/><path class="cls-2" d="M148.226,220.609c3.293,1.181,8.477,1.357,11.287,1.357h.001c.539,0,1.023-.006,1.429-.014-1.396-2.008-3.721-5.169-4.906-6.036-1.187-.871-9.232-3.415-15.182-5.168,1.108,2.476,3.719,7.559,7.371,9.86Z"/><path class="cls-2" d="M189.131,220.609c-3.294,1.181-8.478,1.357-11.287,1.357h-.002c-.539,0-1.023-.006-1.429-.014,1.396-2.008,3.722-5.169,4.905-6.036,1.187-.871,9.232-3.415,15.183-5.168-1.108,2.476-3.719,7.559-7.37,9.86Z"/><path class="cls-3" d="M169.429,269.065c3.25-3.875,11.625-10,18.625-16.5s11.25-16.25,11.25-16.25c0,0-3.375,1.375-5.375,2.125,2.125-2.875,7.875-13.625,8.25-18-4.125,3-16.625,9.125-20.375,9s-12.25-4.125-12.25-4.125l-.875-.334-.875.334s-8.5,4-12.25,4.125-16.25-6-20.375-9c.375,4.375,6.125,15.125,8.25,18-2-.75-5.375-2.125-5.375-2.125,0,0,4.25,9.75,11.25,16.25s15.375,12.625,18.625,16.5l.75.875.75-.875Z"/><path class="cls-3" d="M172.845,186.399c9.666,1.334,24.5,10.833,24.5,10.833,0,0-8.5-2.833-17-4,25.334,10,41.334,32.167,43,40.667-.334,5.333-5,10.833-5,10.833,0,0-2.166-12.5-6-19.333,0,24.333-9.834,40.667-17.334,50.833,17.334-10.001,39.168-31.833,41-43.666-2.832-19.833-20.666-41.667-26.832-49.667,4.166,2.5,11,8.167,16.166,14.334-1.5-10.166-5.834-33.501-18.834-50.833s-36-24.333-36-24.333l-1.833-.439-1.833.439s-23,7.001-36,24.333-17.333,40.668-18.833,50.833c5.166-6.167,11.999-11.834,16.166-14.334-6.166,8-23.999,29.834-26.833,49.667,1.833,11.833,23.667,33.665,41,43.666-7.5-10.166-17.333-26.5-17.333-50.833-3.833,6.833-6,19.333-6,19.333,0,0-4.666-5.5-5-10.833,1.666-8.5,17.666-30.667,43-40.667-8.5,1.167-17,4-17,4,0,0,14.833-9.499,24.5-10.833,0,0,4.061-.791,8.333,0Z"/><path class="cls-3" d="M169.679,329.94c7.875-12.25,20.125-15.875,29.625-22.375s12.75-14.5,17.625-20.75,14-8.5,16.25-11.25,5.375-10.5,9.25-14.625c-4.625,2.25-10.375,9.375-12.75,11.5s-9.875,6.625-9.875,6.625c0,0,.125-4,.5-5.5s6.375-11.5,6.375-11.5c0,0-8.875,6.25-13.125,10.25-4.25,5.625-6.125,12.5-6.125,12.5,0,0,3.5-3.75,6.75-5.75-3.75,14.25-15.5,19.375-19.625,19.875.625-2.75,3-7.5,6.5-11.375-9.375,2.875-15.125,9.875-17.5,13.75s-7,8.625-10.5,9.375c-.125-4.875-.25-12.75,8.75-23.25,12.5-13.875,19.5-32.375,19.875-40.875-8.125,21.75-31.875,40.625-31.875,40.625l-1.125.792-1.125-.792s-23.75-18.875-31.875-40.625c.375,8.5,7.375,27,19.875,40.875,9,10.5,8.875,18.375,8.75,23.25-3.5-.75-8.125-5.5-10.5-9.375s-8.125-10.875-17.5-13.75c3.5,3.875,5.875,8.625,6.5,11.375-4.125-.5-15.875-5.625-19.625-19.875,3.25,2,6.75,5.75,6.75,5.75,0,0-1.875-6.875-6.125-12.5-4.25-4-13.125-10.25-13.125-10.25,0,0,6,10,6.375,11.5s.5,5.5.5,5.5c0,0-7.5-4.5-9.875-6.625s-8.125-9.25-12.75-11.5c3.875,4.125,7,11.875,9.25,14.625s11.375,5,16.25,11.25,8.125,14.25,17.625,20.75,21.75,10.125,29.625,22.375l1.083,1.459.916-1.459Z"/><path class="cls-3" d="M105.804,261.44s-9-10.875-11.75-16.5c0,0-.375,6.25,1.875,11,3.25,3.375,9.875,5.5,9.875,5.5Z"/><path class="cls-3" d="M231.554,261.44s9-10.875,11.75-16.5c0,0,.375,6.25-1.875,11-3.25,3.375-9.875,5.5-9.875,5.5Z"/><path class="cls-1" d="M133.345,94.732s-13.999,20.666,5.667,38.5c-5,2.333-9,4.667-9,4.667l-4.5,8s-25.333-25.833,7.833-51.167Z"/><path class="cls-1" d="M204.012,94.732s13.999,20.666-5.667,38.5c5,2.333,9,4.667,9,4.667l4.5,8s25.334-25.833-7.833-51.167Z"/><path class="cls-2" d="M197.163,197.096c-.75-.875-17.5-13.156-29.375-13.156s-27.719,13.25-27.719,13.25l.022-.009c1.119-.708,15.144-9.502,24.42-10.782,0,0,4.061-.791,8.333,0,8.903,1.228,22.181,9.379,24.223,10.658.031.013.065.026.096.039Z"/><path class="cls-2" d="M202.127,220.523h-.069c-4.231,3.027-16.536,9.041-20.254,8.917-3.75-.125-12.25-4.125-12.25-4.125l-.875-.334-.875.334s-8.5,4-12.25,4.125c-3.725.124-16.078-5.917-20.284-8.938h-.028s12.61,9.438,20.297,10.312c7.437-1.562,12.875-4.625,12.875-4.625l.272-.124.27.145s5.437,3.062,12.875,4.625c7.687-.875,20.297-10.312,20.297-10.312Z"/><path class="cls-4" d="M195.083,276.189c17.322-10.02,39.099-31.807,40.928-43.623-2.818-19.74-20.494-41.457-26.74-49.548-.036-.025-.071-.053-.107-.078,0,0,4,7.875,6.5,14.875-7.25-6.25-16.625-13-21.625-15.5,5.25,5.625,19.75,21.875,22.75,31-9.25-8.375-19.875-15.291-36.334-20.041.003.002.005.004.008.007,25.266,10.023,41.22,32.132,42.883,40.618-.32,5.123-4.627,10.385-4.967,10.793-.002.013-.004.026-.006.039-1.621,6.235-12.897,23.213-23.318,31.442-.01.014-.02.027-.03.041.02-.009.039-.017.059-.025Z"/><path class="cls-4" d="M118.955,244.73c-.005-.027-.008-.056-.012-.083-.564-.688-4.621-5.787-4.931-10.749,1.663-8.48,17.592-30.56,42.821-40.593.013-.011.025-.022.039-.032-16.458,4.75-27.083,11.666-36.333,20.041,3-9.125,17.5-25.375,22.75-31-5,2.5-14.375,9.25-21.625,15.5,2.5-7,6.5-14.875,6.5-14.875-.013.009-.025.019-.038.027-6.212,8.053-23.955,29.819-26.78,49.599,1.833,11.833,23.667,33.665,41,43.666-10.443-8.208-21.766-25.251-23.391-31.501Z"/><path class="cls-4" d="M200.538,145.69s-2.125-3.375-4.875-6.375c9.403,5.863,16.941,17.3,18.552,19.854-2.153-4.419-4.693-8.756-7.704-12.77-13-17.333-36-24.333-36-24.333l-1.833-.439-1.833.439s-23,7.001-36,24.333c-2.965,3.953-5.475,8.22-7.607,12.57,1.848-2.902,9.248-13.932,18.425-19.654-2.75,3-4.875,6.375-4.875,6.375,0,0,12.875-13.125,30.625-17.75l1.312-.25,1.188.25c17.75,4.625,30.625,17.75,30.625,17.75Z"/><path class="cls-4" d="M202.135,220.552s-8.597,15.388-17.472,23.638c2.375-.25,5.375-.75,5.375-.75,0,0-7,10.25-20.125,15.5l-1.25.5-1.25-.5c-13.125-5.25-20.125-15.5-20.125-15.5,0,0,3,.5,5.375.75-8.825-8.203-17.371-23.457-17.467-23.63.461,4.444,6.125,15.029,8.232,17.88-2-.75-5.375-2.125-5.375-2.125,0,0,4.25,9.75,11.25,16.25s15.375,12.625,18.625,16.5l.75.875.75-.875c3.25-3.875,11.625-10,18.625-16.5s11.25-16.25,11.25-16.25c0,0-3.375,1.375-5.375,2.125,2.039-2.759,7.4-12.75,8.165-17.421l.041-.467Z"/><path class="cls-2" d="M170.038,290.731c2.833-2.5,12.25-11,20.417-21.916,7.318-9.782,10.419-19.693,10.984-21.648-8.334,21.493-31.636,40.022-31.636,40.022l-1.125.792-1.125-.792s-23.505-18.686-31.745-40.297l-.103-.077s2.916,11.084,11.083,22c8.167,10.916,17.584,19.416,20.417,21.916,0,0,1.177,1.021,1.458,1.271.625-.594,1.375-1.271,1.375-1.271Z"/><path class="cls-4" d="M207.468,284.678c-.021.075-.036.125-.037.13.002,0,.004-.001.006-.001.078-.084,3.49-3.722,6.687-5.707l.023-.035s2.203-4.562,2.703-5.5c-3.328,1.972-7.833,8.009-9.383,11.113Z"/><path class="cls-4" d="M211.309,292.627c-3.437,4.625-10.312,13.5-23.812,16.438,0,0,2.187-4.25,2.937-7.125-2.187,3.375-5.5,7.312-8.625,10.125s-9.062,6.875-11.625,9.625l-1.395,1.167-1.438-1.167c-2.562-2.75-8.5-6.812-11.625-9.625s-6.437-6.75-8.625-10.125c.75,2.875,2.938,7.125,2.938,7.125-13.5-2.938-20.375-11.812-23.813-16.438-3.437-4.625-8.312-8.562-8.312-8.562,0,0,.046.094.127.255.862.759,1.674,1.579,2.388,2.495,4.875,6.25,8.125,14.25,17.625,20.75s21.75,10.125,29.625,22.375l1.083,1.459.916-1.459c7.875-12.25,20.125-15.875,29.625-22.375s12.75-14.5,17.625-20.75c.746-.957,1.6-1.81,2.505-2.596-.912.758-5.079,4.31-8.125,8.408Z"/><path class="cls-4" d="M120.476,273.565c.5.938,2.703,5.5,2.703,5.5,3.25,2,6.75,5.75,6.75,5.75-1.485-3.062-6.078-9.25-9.453-11.25Z"/><path class="cls-2" d="M55.629,90.741c.743,1.16.519,2.93-1.226,4.088,3.461,2.477,5.164,3.743,8.515,6.323-2.395,1.527-3.583,2.316-5.935,3.938-3.354-2.519-5.056-3.754-8.51-6.175-.31.222-.464.332-.774.555,2.326,3.226,3.488,4.841,5.814,8.067-2.248,1.622-3.361,2.454-5.565,4.164-6.376-8.219-12.751-16.439-19.127-24.658,4.839-3.753,7.307-5.539,12.325-8.926,3.102-2.094,5.356-1.62,6.68.446,3.121,4.872,4.682,7.308,7.803,12.18ZM38.46,86.655c2.517,3.492,3.777,5.238,6.294,8.73,1.184-.854,1.778-1.275,2.973-2.107.463-.322.492-.551.223-.941-2.152-3.118-3.227-4.676-5.379-7.793-.22-.319-.544-.409-.986-.102-1.255.874-1.88,1.315-3.124,2.213Z"/><path class="cls-2" d="M48.512,73.345c5.244-3.255,7.91-4.785,13.311-7.655,1.568,1.799,2.347,2.703,3.893,4.517-2.957,1.548-4.424,2.352-7.334,4.019,1.47,2.571,2.204,3.855,3.674,6.426,2.137-1.224,3.214-1.819,5.377-2.977,1.015,1.898,1.522,2.847,2.538,4.745-2.109,1.129-3.158,1.709-5.242,2.902,1.351,2.361,2.025,3.542,3.376,5.903,2.554-1.462,3.842-2.168,6.436-3.531.654,2.282.988,3.421,1.667,5.692-4.564,2.433-6.816,3.729-11.249,6.481-5.482-8.841-10.964-17.683-16.446-26.524Z"/><path class="cls-2" d="M93.422,80.042c1.288,3.194.505,4.961-3.029,6.497-4.378,1.902-6.546,2.922-10.828,5.101-4.714-9.273-9.429-18.547-14.141-27.822,5.479-2.787,8.256-4.084,13.868-6.48,2.816-1.202,4.826-.373,5.679,1.743,3.38,8.384,5.07,12.577,8.451,20.961ZM74.724,65.365c3.427,7.351,5.142,11.025,8.569,18.375,1.179-.55,1.77-.819,2.956-1.35.523-.234.541-.429.349-.862-3.083-6.958-4.624-10.438-7.707-17.396-.157-.354-.388-.488-.868-.274-1.324.591-1.984.893-3.3,1.507Z"/><path class="cls-2" d="M107.339,47.469c1.365,2.032,2.039,3.052,3.368,5.1-1.94.526-2.907.8-4.837,1.371,2.883,9.742,4.323,14.612,7.207,24.354-2.61.771-3.91,1.18-6.498,2.043-3.217-9.637-4.825-14.455-8.041-24.092-1.914.638-2.867.969-4.77,1.651-.04-2.455-.05-3.685-.049-6.147,5.405-1.886,8.132-2.743,13.621-4.281Z"/><path class="cls-2" d="M111.236,46.414c5.798-1.515,8.717-2.175,14.583-3.305.96,2.182,1.434,3.274,2.368,5.464-3.206.598-4.804.927-7.991,1.644.65,2.889.975,4.334,1.625,7.223,2.34-.526,3.512-.772,5.863-1.232.414,2.112.622,3.168,1.036,5.28-2.292.449-3.436.689-5.718,1.202.598,2.654.897,3.981,1.495,6.636,2.797-.628,4.2-.919,7.013-1.448-.032,2.371-.042,3.558-.047,5.926-4.958.962-7.425,1.523-12.326,2.803-2.635-10.064-5.268-20.129-7.9-30.194Z"/><path class="cls-2" d="M140.553,68.344c-.019,1.568-.027,2.352-.037,3.92-2.639.386-3.955.602-6.583,1.077.108-10.623.534-21.242,1.271-31.839,3.242-.486,4.866-.699,8.121-1.068,3.457,10.045,6.62,20.191,9.476,30.423-2.654.221-3.979.353-6.626.662-.416-1.512-.627-2.267-1.052-3.777-1.83.22-2.743.34-4.568.602ZM140.606,63.339c1.266-.177,1.898-.261,3.166-.418-1.169-4.314-1.772-6.467-3.008-10.768-.099,4.476-.129,6.714-.159,11.186Z"/><path class="cls-2" d="M160.421,55.637c.244,5.883.366,8.825.61,14.708-2.568.106-3.853.18-6.417.369-.771-10.374-1.536-20.748-2.304-31.122,3.222-.238,4.834-.329,8.06-.454,1.869,5.201,2.756,7.811,4.435,13.046,1.463-5.3,2.243-7.943,3.898-13.215,3.249-.007,4.874.017,8.122.124-.346,10.397-.686,20.794-1.034,31.19-2.568-.085-3.855-.107-6.425-.109.004-5.889.007-8.833.011-14.721-1.805,4.992-2.656,7.498-4.249,12.525-1.78-4.958-2.721-7.428-4.708-12.343Z"/><path class="cls-2" d="M199.806,41.012c3.08.414,4.617.647,7.684,1.166-4.056,9.831-7.811,19.784-11.263,29.843-2.732-.375-4.103-.539-6.844-.819-.971-10.587-2.259-21.145-3.868-31.655,3.096.22,4.645.356,7.733.68.105,1.621.155,2.433.251,4.053.314,6.528.435,9.792.604,16.315,1.73-6.331,2.633-9.489,4.511-15.79.473-1.518.711-2.277,1.192-3.793Z"/><path class="cls-2" d="M209.573,42.54c3.022.54,4.53.834,7.537,1.476-2.177,10.173-4.351,20.346-6.523,30.519-2.598-.554-3.899-.81-6.51-1.275,1.828-10.241,3.662-20.48,5.496-30.72Z"/><path class="cls-2" d="M220.211,44.699c3.082.702,4.619,1.081,7.681,1.891-2.602,9.82-3.901,14.731-6.502,24.551,2.667.706,3.994,1.082,6.641,1.879-1.124,2.089-1.68,3.136-2.778,5.236-4.762-1.404-7.162-2.031-11.986-3.13,2.316-10.142,4.628-20.285,6.945-30.427Z"/><path class="cls-2" d="M237.652,49.404c3.031.948,4.539,1.449,7.543,2.504-3.37,9.584-5.052,14.376-8.42,23.961,2.617.919,3.917,1.402,6.508,2.413-1.289,1.992-1.927,2.992-3.191,4.997-4.663-1.788-7.016-2.606-11.76-4.089,3.103-9.93,6.216-19.856,9.32-29.786Z"/><path class="cls-2" d="M250.824,83.518c-.852,1.318-1.274,1.978-2.118,3.3-2.483-1.09-3.732-1.612-6.243-2.612,5.741-8.947,11.763-17.713,18.039-26.293,3.057,1.328,4.575,2.021,7.593,3.465-2.356,10.37-5.021,20.669-7.993,30.88-2.426-1.255-3.647-1.86-6.105-3.026.445-1.504.663-2.257,1.1-3.765-1.701-.801-2.556-1.19-4.271-1.949ZM253.535,79.305c1.188.531,1.782.801,2.964,1.352,1.286-4.283,1.914-6.43,3.136-10.736-2.471,3.737-3.691,5.614-6.1,9.385Z"/><path class="cls-2" d="M274.249,68.711c1.063-2.019,3.161-2.632,5.87-1.132,3.936,2.18,5.885,3.321,9.734,5.708-.759,2.265-1.144,3.394-1.929,5.647-2.874-1.806-4.323-2.679-7.248-4.365-.46-.265-.705-.156-.897.18-3.676,6.427-5.512,9.64-9.187,16.067-.192.336-.175.596.245.837,1.106.638,1.657.962,2.756,1.619,2.524-4.228,3.786-6.343,6.31-10.571,2.49,1.488,3.727,2.256,6.177,3.835-3.896,6.052-5.843,9.078-9.738,15.13-4.03-2.598-6.077-3.83-10.222-6.159-3.398-1.911-4.011-3.754-2.405-6.801,4.214-7.998,6.32-11.997,10.534-19.995Z"/><path class="cls-2" d="M295.851,77.136c5.166,3.43,7.706,5.241,12.686,9.056-.972,2.184-1.466,3.272-2.462,5.441-2.71-2.101-4.078-3.123-6.847-5.107-1.725,2.408-2.587,3.611-4.312,6.019,2.033,1.457,3.042,2.203,5.042,3.725-1.304,1.713-1.953,2.568-3.257,4.281-1.95-1.484-2.934-2.21-4.916-3.63-1.584,2.212-2.376,3.316-3.96,5.528,2.43,1.741,3.635,2.638,6.015,4.479-1.813,1.536-2.718,2.309-4.511,3.864-4.214-3.218-6.36-4.748-10.728-7.648,5.749-8.67,11.5-17.337,17.249-26.007Z"/></g></svg>