<svg width="200" height="32" viewBox="0 0 200 32" fill="none" xmlns="http://www.w3.org/2000/svg">
<path d="M57.4385 7.97343H65.8229C68.857 7.97343 70.4098 9.92269 70.4098 12.0643C70.4098 14.0855 69.1676 15.4328 67.6623 15.7459C69.359 16.0105 70.7201 17.671 70.7201 19.6921C70.7201 22.0988 69.1193 24.0238 66.0861 24.0238H57.4385V7.97343ZM65.0824 14.4224C66.2287 14.4224 66.9463 13.6762 66.9463 12.642C66.9463 11.655 66.2287 10.885 65.0824 10.885H60.8303V14.4224H65.0824ZM65.202 21.1122C66.4922 21.1122 67.2566 20.366 67.2566 19.211C67.2566 18.2006 66.5398 17.334 65.202 17.334H60.8303V21.1122H65.202Z" fill="white" data-darkreader-inline-fill="" style="--darkreader-inline-fill: var(--darkreader-text-ffffff, #e8e6e3);"></path>
<path d="M74.4705 24.0238H77.8623V7.97343H74.4705V24.0238Z" fill="white" data-darkreader-inline-fill="" style="--darkreader-inline-fill: var(--darkreader-text-ffffff, #e8e6e3);"></path>
<path d="M82.9742 19.1627C84.0967 20.3423 85.841 21.3289 88.0385 21.3289C89.9021 21.3289 90.809 20.4385 90.809 19.5238C90.809 18.3207 89.4238 17.9119 87.5844 17.4784C84.9807 16.8769 81.6365 16.1549 81.6365 12.5694C81.6365 9.89859 83.9295 7.73277 87.6803 7.73277C90.2119 7.73277 92.3139 8.50281 93.8914 9.97053L92.0041 12.4733C90.7139 11.2702 88.9939 10.7167 87.4414 10.7167C85.9119 10.7167 85.1004 11.3906 85.1004 12.3529C85.1004 13.436 86.4381 13.7725 88.2775 14.2056C90.9045 14.8072 94.2496 15.6014 94.2496 19.1627C94.2496 22.0989 92.1709 24.3124 87.8709 24.3124C84.8135 24.3124 82.6156 23.2778 81.1107 21.762L82.9742 19.1627Z" fill="white" data-darkreader-inline-fill="" style="--darkreader-inline-fill: var(--darkreader-text-ffffff, #e8e6e3);"></path>
<path d="M108.653 17.286H101.128V24.0239H97.7365V7.97347H101.128V14.2783H108.653V7.97347H112.07V24.0239H108.653V17.286Z" fill="white" data-darkreader-inline-fill="" style="--darkreader-inline-fill: var(--darkreader-text-ffffff, #e8e6e3);"></path>
<path d="M123.941 7.70868C128.767 7.70868 132.278 11.1738 132.278 16.0108C132.278 20.8474 128.767 24.3125 123.941 24.3125C119.14 24.3125 115.628 20.8474 115.628 16.0108C115.628 11.1738 119.14 7.70868 123.941 7.70868ZM123.941 10.7407C121.003 10.7407 119.116 13.0026 119.116 16.0108C119.116 18.9943 121.003 21.2805 123.941 21.2805C126.879 21.2805 128.79 18.9943 128.79 16.0108C128.79 13.0026 126.879 10.7407 123.941 10.7407Z" fill="white" data-darkreader-inline-fill="" style="--darkreader-inline-fill: var(--darkreader-text-ffffff, #e8e6e3);"></path>
<path d="M135.861 7.97343H143.314C146.778 7.97343 148.665 10.3315 148.665 13.147C148.665 15.9382 146.754 18.2729 143.314 18.2729H139.253V24.0238H135.861V7.97343ZM142.861 10.9093H139.253V15.3367H142.861C144.198 15.3367 145.202 14.4705 145.202 13.1231C145.202 11.7997 144.198 10.9093 142.861 10.9093Z" fill="white" data-darkreader-inline-fill="" style="--darkreader-inline-fill: var(--darkreader-text-ffffff, #e8e6e3);"></path>
<path d="M151.961 7.97343H163.237V10.9093H155.354V14.3982H163.07V17.334H155.354V24.0238H151.961V7.97343Z" fill="#00CDC5" data-darkreader-inline-fill="" style="--darkreader-inline-fill: var(--darkreader-text-00cdc5, #3dfff7);"></path>
<path d="M174.344 7.70868C179.17 7.70868 182.682 11.1738 182.682 16.0108C182.682 20.8474 179.17 24.3125 174.344 24.3125C169.543 24.3125 166.032 20.8474 166.032 16.0108C166.032 11.1738 169.543 7.70868 174.344 7.70868ZM174.344 10.7407C171.406 10.7407 169.519 13.0026 169.519 16.0108C169.519 18.9943 171.406 21.2805 174.344 21.2805C177.283 21.2805 179.194 18.9943 179.194 16.0108C179.194 13.0026 177.283 10.7407 174.344 10.7407Z" fill="#00CDC5" data-darkreader-inline-fill="" style="--darkreader-inline-fill: var(--darkreader-text-00cdc5, #3dfff7);"></path>
<path d="M191.95 18.1521L187.936 24.0238H183.9L189.68 15.794L184.258 7.97343H188.295L191.95 13.4601L195.557 7.97343H199.642L194.22 15.7698L200 24.0238H195.939L191.95 18.1521Z" fill="#00CDC5" data-darkreader-inline-fill="" style="--darkreader-inline-fill: var(--darkreader-text-00cdc5, #3dfff7);"></path>
<path d="M39.9434 11.9417L35.3298 17.92H30.5122L30.497 17.9025L30.4955 17.9013L28.2395 14.9338L30.5149 11.9417H39.9434ZM49.1738 0L44.5566 5.97331H30.5121V2.8991L32.7028 0H49.1738Z" fill="#00CDC5" data-darkreader-inline-fill="" style="--darkreader-inline-fill: var(--darkreader-text-00cdc5, #3dfff7);"></path>
<path d="M0 0L4.62484 5.97331H18.6545V11.9415H9.22635L13.8418 17.9203H18.6545V24.0582L24.5896 31.8182V17.9258L24.5718 17.9019L24.5702 17.9008L22.3135 14.934L24.5896 11.9415V2.99252L22.3135 0H0Z" fill="white" data-darkreader-inline-fill="" style="--darkreader-inline-fill: var(--darkreader-text-ffffff, #e8e6e3);"></path>
</svg>
