<svg viewBox="0 0 449.5 72" xmlns="http://www.w3.org/2000/svg"><g fill="#8fe5f2"><path d="m392.28.2-34.95 70.65h69.9zm-15.99 58.87 15.99-32.31 15.99 32.31z"/><path d="m0 1.3v69.55h12.9v-27.5h38.83v-12.41h-38.83v-17.22h38.83v-12.42z"/><path d="m182.55 34.42h-25.36v-20.9h25.36c5.48 0 9.77 4.59 9.77 10.45s-4.38 10.45-9.77 10.45m22.67-10.45c0-12.5-10.17-22.67-22.67-22.67h-38.26v69.55h12.9v-24.69h22.05l14.33 24.69h14.24l-15.67-26.8c7.86-3.59 13.08-11.53 13.08-20.07"/><path d="m325.92 34.42h-25.36v-20.9h25.36c5.48 0 9.77 4.59 9.77 10.45s-4.38 10.45-9.77 10.45m22.67-10.45c0-12.5-10.17-22.67-22.67-22.67h-38.26v69.54h12.9v-24.69h22.05l14.33 24.69h14.24l-15.67-26.8c7.86-3.59 13.08-11.53 13.08-20.07"/><path d="m212.55 1.3v12.42h26.07v57.13h12.9v-57.13h25.97v-12.42z"/><path d="m98.04 59.4c-13.18 0-23.11-10.06-23.11-23.4s9.94-23.4 23.11-23.4 23.11 10.06 23.11 23.4-9.94 23.4-23.11 23.4m0-59.4c-20.19 0-36 15.81-36 36s15.81 36 36 36 36-15.81 36-36-15.81-36-36-36"/><path d="m437.66 61.25c.77.45 1.38 1.07 1.82 1.87s.66 1.69.66 2.68-.22 1.88-.66 2.66c-.44.79-1.05 1.41-1.82 1.86s-1.65.68-2.64.68-1.87-.23-2.65-.68-1.39-1.07-1.83-1.86-.66-1.68-.66-2.66.22-1.88.66-2.68 1.05-1.42 1.83-1.87 1.66-.68 2.65-.68 1.87.23 2.64.68zm.39 7.67c.77-.81 1.16-1.85 1.16-3.12s-.39-2.3-1.16-3.12c-.77-.81-1.78-1.22-3.03-1.22s-2.28.41-3.05 1.22-1.16 1.85-1.16 3.12.38 2.3 1.16 3.12 1.79 1.22 3.05 1.22 2.26-.41 3.03-1.22zm-1.13-3.18c-.24.29-.58.47-1.01.56l1.56 2.23-1.33.03-1.43-2.21h-.6v2.21h-1.12v-5.59h2.42c.57 0 1.03.15 1.36.45.34.3.51.71.51 1.24 0 .43-.12.79-.36 1.08zm-2.81-.33h1.22c.24 0 .44-.06.6-.18s.23-.3.23-.55-.08-.42-.23-.53c-.16-.11-.36-.17-.6-.17h-1.22z"/></g></svg>