<?xml version="1.0" encoding="UTF-8"?>
<svg id="Logo_04" data-name="Logo 04" xmlns="http://www.w3.org/2000/svg" viewBox="0 0 369.78 105.63">
  <defs>
    <style>
      .cls-1 {
        fill: #ff3c00;
      }
    </style>
  </defs>
  <g>
    <path class="cls-1" d="M132.87,76.64c-2.95-.99-6.37-1.92-10.28-2.78-1.98-.46-3.72-.93-5.21-1.39-1.49-.46-2.63-1.01-3.43-1.64-.79-.63-1.19-1.34-1.19-2.13,0-1.13.56-2.05,1.69-2.78,1.13-.73,2.75-1.09,4.86-1.09,1.99,0,3.59.35,4.82,1.04,1.22.7,2.04,1.7,2.43,3.03h13.8c-.59-4.7-2.7-8.44-6.3-11.22-3.61-2.78-8.49-4.17-14.65-4.17-4.44,0-8.21.71-11.32,2.13s-5.5,3.34-7.15,5.76c-1.66,2.42-2.49,5.12-2.49,8.09,0,2.45.56,4.51,1.69,6.16,1.13,1.66,2.61,3.01,4.47,4.07,1.85,1.06,3.94,1.92,6.25,2.58,2.32.66,4.63,1.26,6.95,1.79,1.98.46,3.71.91,5.16,1.34,1.45.43,2.56.96,3.33,1.59.76.63,1.14,1.54,1.14,2.73,0,.79-.25,1.56-.75,2.28s-1.26,1.31-2.28,1.74c-1.03.43-2.37.65-4.02.65-1.52,0-2.88-.25-4.07-.74-1.19-.5-2.17-1.19-2.93-2.09-.76-.89-1.28-1.87-1.54-2.93h-14.8c.33,3.18,1.49,6.06,3.47,8.64,1.99,2.58,4.68,4.61,8.09,6.11,3.41,1.49,7.43,2.23,12.07,2.23s8.36-.71,11.57-2.13c3.21-1.43,5.69-3.39,7.45-5.91,1.75-2.51,2.63-5.36,2.63-8.54,0-3.58-.84-6.29-2.53-8.15-1.69-1.85-4-3.28-6.95-4.27Z"/>
    <path class="cls-1" d="M204.05,32.65c-2.65,0-4.82.76-6.51,2.28-1.69,1.52-2.53,3.47-2.53,5.86s.84,4.23,2.53,5.76c1.69,1.52,3.85,2.28,6.51,2.28s4.9-.76,6.55-2.28c1.65-1.52,2.48-3.44,2.48-5.76s-.83-4.34-2.48-5.86c-1.66-1.52-3.84-2.28-6.55-2.28Z"/>
    <polygon class="cls-1" points="196.5 103.93 174.03 77.55 193.66 54.69 176.08 54.69 159.89 74.57 159.89 32.94 145 32.94 145 104.44 159.89 104.44 159.89 79.89 178.46 104.44 196.5 104.44 196.93 104.44 211.39 104.44 211.39 54.69 196.5 54.69 196.5 103.93"/>
    <rect class="cls-1" x="216.13" y="32.94" width="14.89" height="71.5"/>
    <rect class="cls-1" x="235.56" y="32.94" width="14.89" height="71.5"/>
    <path class="cls-1" d="M297.73,56.92c-3.61-2.28-7.7-3.42-12.26-3.42-3.84,0-7,.74-9.48,2.23-2.48,1.49-4.52,3.33-6.11,5.51v-28.3h-14.89v71.5h13.2l1.69-5.96c1.13,1.46,2.43,2.72,3.92,3.77,1.49,1.06,3.21,1.89,5.16,2.48,1.95.59,4.15.89,6.6.89,4.57,0,8.64-1.13,12.21-3.38,3.58-2.25,6.42-5.35,8.54-9.29,2.12-3.94,3.18-8.36,3.18-13.25s-1.06-9.6-3.18-13.51c-2.12-3.9-4.98-7-8.59-9.29ZM292.76,86.37c-1.09,1.92-2.58,3.44-4.47,4.57-1.89,1.12-4.02,1.68-6.4,1.68s-4.62-.55-6.51-1.64c-1.89-1.09-3.36-2.63-4.42-4.62-1.06-1.98-1.59-4.23-1.59-6.75s.53-4.85,1.59-6.8c1.05-1.96,2.53-3.49,4.42-4.62,1.89-1.13,4.06-1.69,6.51-1.69s4.52.56,6.4,1.69c1.89,1.13,3.38,2.68,4.47,4.67,1.09,1.98,1.64,4.24,1.64,6.75s-.55,4.83-1.64,6.75Z"/>
    <rect class="cls-1" x="313.18" y="54.69" width="14.89" height="49.75"/>
    <path class="cls-1" d="M320.73,32.65c-2.65,0-4.82.76-6.51,2.28-1.69,1.52-2.53,3.47-2.53,5.86s.84,4.23,2.53,5.76c1.69,1.52,3.85,2.28,6.51,2.28s4.9-.76,6.55-2.28c1.65-1.52,2.48-3.44,2.48-5.76s-.83-4.34-2.48-5.86c-1.66-1.52-3.84-2.28-6.55-2.28Z"/>
    <path class="cls-1" d="M369.78,67.1v-12.41h-12.81v-14h-13.21l-1.68,14h-8.44v12.41h8.44v19.07c0,4.57.78,8.18,2.33,10.82,1.56,2.65,3.71,4.55,6.46,5.71,2.74,1.16,5.94,1.74,9.58,1.74h9.24v-12.61h-6.65c-2.18,0-3.74-.41-4.67-1.24-.93-.83-1.39-2.23-1.39-4.22v-19.27h12.81Z"/>
  </g>
  <g>
    <path class="cls-1" d="M80.41,12.69c-3.9-7.5-11.66-12.69-20.69-12.69s-16.83,5.22-20.72,12.75c-8.05-.21-9.45-3.24-9.45-10.24h-3.28c0,7.78,2.05,12.75,11.38,13.43-.8,2.36-1.33,4.84-1.33,7.46,0,.5.01,1,.04,1.48.21,3.29,1.07,6.41,2.58,9.3L0,87.53h3.19c.84.02,1.68.03,2.51.03.26,0,.5-.02.76-.03h20.96l5.76,14.82h-12.48v3.28h44.57v-3.28h-10.47l-5.81-14.94c14.91-1.26,34.13-14.34,34.13-41.8v-22.21c0-2.65-.54-5.16-1.36-7.54,8.29-1.02,10.11-5.92,10.11-13.35h-3.28c0,6.61-1.26,9.68-8.18,10.18ZM59.73,3.28c7.21,0,13.49,3.84,17.05,9.55-7.08.19-11.85,1.73-14.88,4.83-1.2,1.22-2.14,2.68-2.84,4.41-.7-1.73-1.64-3.18-2.84-4.41-2.84-2.91-7.19-4.45-13.55-4.79,3.55-5.73,9.84-9.59,17.06-9.59ZM41.31,36.5c8.09,5.02,16.8,11.24,16.77,16.54,0,6.77-2.49,12.64-7.41,17.45-8.77,8.58-25.12,13.58-44.18,13.71l8.32-11.4c.97.06,1.93.12,2.87.12,12.66,0,22.34-5.37,28.8-16l-2.8-1.71c-5.99,9.84-14.71,14.51-26.51,14.36l24.15-33.08ZM36.7,102.35l-5.76-14.82h14.58l5.76,14.82h-14.58ZM79.85,23.4v22.21c0,29.19-22.37,38.64-33.2,38.64h-15.44c9.03-2.52,16.61-6.37,21.75-11.41,5.57-5.45,8.4-12.11,8.4-19.79.05-7.06-9.16-13.74-19.22-19.91-1.46-2.62-2.31-5.46-2.5-8.48-.03-.42-.04-.84-.04-1.27,0-2.57.53-5.01,1.41-7.27,6.27.14,10.42,1.34,12.85,3.82,2.53,2.58,3.63,6.9,3.48,13.59h.12s0,.05,0,.08l1.58-.04,1.58.04s0-.05,0-.07h.12c-.15-6.69.96-11,3.48-13.59,2.59-2.65,7.06-3.88,14.05-3.88.05,0,.08,0,.12,0,.9,2.28,1.43,4.74,1.43,7.33Z"/>
    <path class="cls-1" d="M48.91,22.28c-1.43,0-2.58,1.16-2.58,2.58s1.16,2.58,2.58,2.58,2.58-1.16,2.58-2.58-1.16-2.58-2.58-2.58Z"/>
    <path class="cls-1" d="M70.05,22.28c-1.43,0-2.58,1.16-2.58,2.58s1.16,2.58,2.58,2.58,2.58-1.16,2.58-2.58-1.16-2.58-2.58-2.58Z"/>
  </g>
</svg>